<svg width="215" height="159" viewBox="0 0 215 159" fill="none" xmlns="http://www.w3.org/2000/svg">
<ellipse cx="1.29382" cy="1.5" rx="1.29382" ry="1.5" transform="matrix(-1 0 0 1 215.001 3.05176e-05)" fill="#00D664"/>
<ellipse cx="1.29382" cy="1.5" rx="1.29382" ry="1.5" transform="matrix(-1 0 0 1 199.475 0)" fill="#00D664"/>
<ellipse cx="1.29382" cy="1.5" rx="1.29382" ry="1.5" transform="matrix(-1 0 0 1 183.949 0)" fill="#00D664"/>
<ellipse cx="1.29382" cy="1.5" rx="1.29382" ry="1.5" transform="matrix(-1 0 0 1 168.424 0)" fill="#00D664"/>
<ellipse cx="1.29382" cy="1.5" rx="1.29382" ry="1.5" transform="matrix(-1 0 0 1 152.898 0)" fill="#00D664"/>
<ellipse cx="1.29382" cy="1.5" rx="1.29382" ry="1.5" transform="matrix(-1 0 0 1 137.372 0)" fill="#00D664"/>
<ellipse cx="1.29382" cy="1.5" rx="1.29382" ry="1.5" transform="matrix(-1 0 0 1 121.846 0)" fill="#00D664"/>
<ellipse cx="1.29382" cy="1.5" rx="1.29382" ry="1.5" transform="matrix(-1 0 0 1 106.32 0)" fill="#00D664"/>
<ellipse cx="1.29382" cy="1.5" rx="1.29382" ry="1.5" transform="matrix(-1 0 0 1 90.7945 0)" fill="#00D664"/>
<ellipse cx="1.29382" cy="1.5" rx="1.29382" ry="1.5" transform="matrix(-1 0 0 1 75.2687 0)" fill="#00D664"/>
<ellipse cx="1.29382" cy="1.5" rx="1.29382" ry="1.5" transform="matrix(-1 0 0 1 215.001 18)" fill="#00D664"/>
<ellipse cx="1.29382" cy="1.5" rx="1.29382" ry="1.5" transform="matrix(-1 0 0 1 199.475 18)" fill="#00D664"/>
<ellipse cx="1.29382" cy="1.5" rx="1.29382" ry="1.5" transform="matrix(-1 0 0 1 183.949 18)" fill="#00D664"/>
<ellipse cx="1.29382" cy="1.5" rx="1.29382" ry="1.5" transform="matrix(-1 0 0 1 168.424 18)" fill="#00D664"/>
<ellipse cx="1.29382" cy="1.5" rx="1.29382" ry="1.5" transform="matrix(-1 0 0 1 152.898 18)" fill="#00D664"/>
<ellipse cx="1.29382" cy="1.5" rx="1.29382" ry="1.5" transform="matrix(-1 0 0 1 137.372 18)" fill="#00D664"/>
<ellipse cx="1.29382" cy="1.5" rx="1.29382" ry="1.5" transform="matrix(-1 0 0 1 121.846 18)" fill="#00D664"/>
<ellipse cx="1.29382" cy="1.5" rx="1.29382" ry="1.5" transform="matrix(-1 0 0 1 106.32 18)" fill="#00D664"/>
<ellipse cx="1.29382" cy="1.5" rx="1.29382" ry="1.5" transform="matrix(-1 0 0 1 90.7945 18)" fill="#00D664"/>
<ellipse cx="1.29382" cy="1.5" rx="1.29382" ry="1.5" transform="matrix(-1 0 0 1 75.2687 18)" fill="#00D664"/>
<ellipse cx="1.29382" cy="1.5" rx="1.29382" ry="1.5" transform="matrix(-1 0 0 1 215.001 36)" fill="#00D664"/>
<ellipse cx="1.29382" cy="1.5" rx="1.29382" ry="1.5" transform="matrix(-1 0 0 1 199.475 36)" fill="#00D664"/>
<ellipse cx="1.29382" cy="1.5" rx="1.29382" ry="1.5" transform="matrix(-1 0 0 1 183.949 36)" fill="#00D664"/>
<ellipse cx="1.29382" cy="1.5" rx="1.29382" ry="1.5" transform="matrix(-1 0 0 1 168.424 36)" fill="#00D664"/>
<ellipse cx="1.29382" cy="1.5" rx="1.29382" ry="1.5" transform="matrix(-1 0 0 1 152.898 36)" fill="#00D664"/>
<ellipse cx="1.29382" cy="1.5" rx="1.29382" ry="1.5" transform="matrix(-1 0 0 1 137.372 36)" fill="#00D664"/>
<ellipse cx="1.29382" cy="1.5" rx="1.29382" ry="1.5" transform="matrix(-1 0 0 1 121.846 36)" fill="#00D664"/>
<ellipse cx="1.29382" cy="1.5" rx="1.29382" ry="1.5" transform="matrix(-1 0 0 1 106.32 36)" fill="#00D664"/>
<ellipse cx="1.29382" cy="1.5" rx="1.29382" ry="1.5" transform="matrix(-1 0 0 1 90.7945 36)" fill="#00D664"/>
<ellipse cx="1.29382" cy="1.5" rx="1.29382" ry="1.5" transform="matrix(-1 0 0 1 75.2687 36)" fill="#00D664"/>
<ellipse cx="1.29382" cy="1.5" rx="1.29382" ry="1.5" transform="matrix(-1 0 0 1 215.001 54)" fill="#00D664"/>
<ellipse cx="1.29382" cy="1.5" rx="1.29382" ry="1.5" transform="matrix(-1 0 0 1 199.475 54)" fill="#00D664"/>
<ellipse cx="1.29382" cy="1.5" rx="1.29382" ry="1.5" transform="matrix(-1 0 0 1 183.949 54)" fill="#00D664"/>
<ellipse cx="1.29382" cy="1.5" rx="1.29382" ry="1.5" transform="matrix(-1 0 0 1 168.424 54)" fill="#00D664"/>
<ellipse cx="1.29382" cy="1.5" rx="1.29382" ry="1.5" transform="matrix(-1 0 0 1 152.898 54)" fill="#00D664"/>
<ellipse cx="1.29382" cy="1.5" rx="1.29382" ry="1.5" transform="matrix(-1 0 0 1 137.372 54)" fill="#00D664"/>
<ellipse cx="1.29382" cy="1.5" rx="1.29382" ry="1.5" transform="matrix(-1 0 0 1 121.846 54)" fill="#00D664"/>
<ellipse cx="1.29382" cy="1.5" rx="1.29382" ry="1.5" transform="matrix(-1 0 0 1 106.32 54)" fill="#00D664"/>
<ellipse cx="1.29382" cy="1.5" rx="1.29382" ry="1.5" transform="matrix(-1 0 0 1 90.7945 54)" fill="#00D664"/>
<ellipse cx="1.29382" cy="1.5" rx="1.29382" ry="1.5" transform="matrix(-1 0 0 1 75.2687 54)" fill="#00D664"/>
<ellipse cx="1.29382" cy="1.5" rx="1.29382" ry="1.5" transform="matrix(-1 0 0 1 215.001 72)" fill="#00D664"/>
<ellipse cx="1.29382" cy="1.5" rx="1.29382" ry="1.5" transform="matrix(-1 0 0 1 199.475 72)" fill="#00D664"/>
<ellipse cx="1.29382" cy="1.5" rx="1.29382" ry="1.5" transform="matrix(-1 0 0 1 183.949 72)" fill="#00D664"/>
<ellipse cx="1.29382" cy="1.5" rx="1.29382" ry="1.5" transform="matrix(-1 0 0 1 168.424 72)" fill="#00D664"/>
<ellipse cx="1.29382" cy="1.5" rx="1.29382" ry="1.5" transform="matrix(-1 0 0 1 152.898 72)" fill="#00D664"/>
<ellipse cx="1.29382" cy="1.5" rx="1.29382" ry="1.5" transform="matrix(-1 0 0 1 137.372 72)" fill="#00D664"/>
<ellipse cx="1.29382" cy="1.5" rx="1.29382" ry="1.5" transform="matrix(-1 0 0 1 121.846 72)" fill="#00D664"/>
<ellipse cx="1.29382" cy="1.5" rx="1.29382" ry="1.5" transform="matrix(-1 0 0 1 106.32 72)" fill="#00D664"/>
<ellipse cx="1.29382" cy="1.5" rx="1.29382" ry="1.5" transform="matrix(-1 0 0 1 90.7945 72)" fill="#00D664"/>
<ellipse cx="1.29382" cy="1.5" rx="1.29382" ry="1.5" transform="matrix(-1 0 0 1 75.2687 72)" fill="#00D664"/>
<ellipse cx="1.29382" cy="1.5" rx="1.29382" ry="1.5" transform="matrix(-1 0 0 1 215.001 90)" fill="#00D664"/>
<ellipse cx="1.29382" cy="1.5" rx="1.29382" ry="1.5" transform="matrix(-1 0 0 1 199.475 90)" fill="#00D664"/>
<ellipse cx="1.29382" cy="1.5" rx="1.29382" ry="1.5" transform="matrix(-1 0 0 1 183.949 90)" fill="#00D664"/>
<ellipse cx="1.29382" cy="1.5" rx="1.29382" ry="1.5" transform="matrix(-1 0 0 1 168.424 90)" fill="#00D664"/>
<ellipse cx="1.29382" cy="1.5" rx="1.29382" ry="1.5" transform="matrix(-1 0 0 1 152.898 90)" fill="#00D664"/>
<ellipse cx="1.29382" cy="1.5" rx="1.29382" ry="1.5" transform="matrix(-1 0 0 1 137.372 90)" fill="#00D664"/>
<ellipse cx="1.29382" cy="1.5" rx="1.29382" ry="1.5" transform="matrix(-1 0 0 1 121.846 90)" fill="#00D664"/>
<ellipse cx="1.29382" cy="1.5" rx="1.29382" ry="1.5" transform="matrix(-1 0 0 1 106.32 90)" fill="#00D664"/>
<ellipse cx="1.29382" cy="1.5" rx="1.29382" ry="1.5" transform="matrix(-1 0 0 1 90.7945 90)" fill="#00D664"/>
<ellipse cx="1.29382" cy="1.5" rx="1.29382" ry="1.5" transform="matrix(-1 0 0 1 75.2687 90)" fill="#00D664"/>
<ellipse cx="1.29382" cy="1.5" rx="1.29382" ry="1.5" transform="matrix(-1 0 0 1 215.001 108)" fill="#00D664"/>
<ellipse cx="1.29382" cy="1.5" rx="1.29382" ry="1.5" transform="matrix(-1 0 0 1 199.475 108)" fill="#00D664"/>
<ellipse cx="1.29382" cy="1.5" rx="1.29382" ry="1.5" transform="matrix(-1 0 0 1 183.949 108)" fill="#00D664"/>
<ellipse cx="1.29382" cy="1.5" rx="1.29382" ry="1.5" transform="matrix(-1 0 0 1 168.424 108)" fill="#00D664"/>
<ellipse cx="1.29382" cy="1.5" rx="1.29382" ry="1.5" transform="matrix(-1 0 0 1 152.898 108)" fill="#00D664"/>
<ellipse cx="1.29382" cy="1.5" rx="1.29382" ry="1.5" transform="matrix(-1 0 0 1 137.372 108)" fill="#00D664"/>
<ellipse cx="1.29382" cy="1.5" rx="1.29382" ry="1.5" transform="matrix(-1 0 0 1 121.846 108)" fill="#00D664"/>
<ellipse cx="1.29382" cy="1.5" rx="1.29382" ry="1.5" transform="matrix(-1 0 0 1 106.32 108)" fill="#00D664"/>
<ellipse cx="1.29382" cy="1.5" rx="1.29382" ry="1.5" transform="matrix(-1 0 0 1 90.7945 108)" fill="#00D664"/>
<ellipse cx="1.29382" cy="1.5" rx="1.29382" ry="1.5" transform="matrix(-1 0 0 1 75.2687 108)" fill="#00D664"/>
<ellipse cx="1.29382" cy="1.5" rx="1.29382" ry="1.5" transform="matrix(-1 0 0 1 215.001 119)" fill="#00D664"/>
<ellipse cx="1.29382" cy="1.5" rx="1.29382" ry="1.5" transform="matrix(-1 0 0 1 199.475 119)" fill="#00D664"/>
<ellipse cx="1.29382" cy="1.5" rx="1.29382" ry="1.5" transform="matrix(-1 0 0 1 183.949 119)" fill="#00D664"/>
<ellipse cx="1.29382" cy="1.5" rx="1.29382" ry="1.5" transform="matrix(-1 0 0 1 168.424 119)" fill="#00D664"/>
<ellipse cx="1.29382" cy="1.5" rx="1.29382" ry="1.5" transform="matrix(-1 0 0 1 152.898 119)" fill="#00D664"/>
<ellipse cx="1.29382" cy="1.5" rx="1.29382" ry="1.5" transform="matrix(-1 0 0 1 137.372 119)" fill="#00D664"/>
<ellipse cx="1.29382" cy="1.5" rx="1.29382" ry="1.5" transform="matrix(-1 0 0 1 121.846 119)" fill="#00D664"/>
<ellipse cx="1.29382" cy="1.5" rx="1.29382" ry="1.5" transform="matrix(-1 0 0 1 106.32 119)" fill="#00D664"/>
<ellipse cx="1.29382" cy="1.5" rx="1.29382" ry="1.5" transform="matrix(-1 0 0 1 90.7945 119)" fill="#00D664"/>
<ellipse cx="1.29382" cy="1.5" rx="1.29382" ry="1.5" transform="matrix(-1 0 0 1 75.2687 119)" fill="#00D664"/>
<ellipse cx="1.29382" cy="1.5" rx="1.29382" ry="1.5" transform="matrix(-1 0 0 1 215.001 137)" fill="#00D664"/>
<ellipse cx="1.29382" cy="1.5" rx="1.29382" ry="1.5" transform="matrix(-1 0 0 1 199.475 137)" fill="#00D664"/>
<ellipse cx="1.29382" cy="1.5" rx="1.29382" ry="1.5" transform="matrix(-1 0 0 1 183.949 137)" fill="#00D664"/>
<ellipse cx="1.29382" cy="1.5" rx="1.29382" ry="1.5" transform="matrix(-1 0 0 1 168.424 137)" fill="#00D664"/>
<ellipse cx="1.29382" cy="1.5" rx="1.29382" ry="1.5" transform="matrix(-1 0 0 1 152.898 137)" fill="#00D664"/>
<ellipse cx="1.29382" cy="1.5" rx="1.29382" ry="1.5" transform="matrix(-1 0 0 1 137.372 137)" fill="#00D664"/>
<ellipse cx="1.29382" cy="1.5" rx="1.29382" ry="1.5" transform="matrix(-1 0 0 1 121.846 137)" fill="#00D664"/>
<ellipse cx="1.29382" cy="1.5" rx="1.29382" ry="1.5" transform="matrix(-1 0 0 1 106.32 137)" fill="#00D664"/>
<ellipse cx="1.29382" cy="1.5" rx="1.29382" ry="1.5" transform="matrix(-1 0 0 1 90.7945 137)" fill="#00D664"/>
<ellipse cx="1.29382" cy="1.5" rx="1.29382" ry="1.5" transform="matrix(-1 0 0 1 75.2687 137)" fill="#00D664"/>
<ellipse cx="1.29382" cy="1.5" rx="1.29382" ry="1.5" transform="matrix(-0.0097066 0.999953 0.999953 0.0097066 62.3816 15.9999)" fill="#00D664"/>
<ellipse cx="1.29382" cy="1.5" rx="1.29382" ry="1.5" transform="matrix(-0.0097066 0.999953 0.999953 0.0097066 62.2309 31.525)" fill="#00D664"/>
<ellipse cx="1.29382" cy="1.5" rx="1.29382" ry="1.5" transform="matrix(-0.0097066 0.999953 0.999953 0.0097066 62.0802 47.0501)" fill="#00D664"/>
<ellipse cx="1.29382" cy="1.5" rx="1.29382" ry="1.5" transform="matrix(-0.0097066 0.999953 0.999953 0.0097066 61.9295 62.5752)" fill="#00D664"/>
<ellipse cx="1.29382" cy="1.5" rx="1.29382" ry="1.5" transform="matrix(-0.0097066 0.999953 0.999953 0.0097066 61.7787 78.1003)" fill="#00D664"/>
<ellipse cx="1.29382" cy="1.5" rx="1.29382" ry="1.5" transform="matrix(-0.0097066 0.999953 0.999953 0.0097066 61.6281 93.6253)" fill="#00D664"/>
<ellipse cx="1.29382" cy="1.5" rx="1.29382" ry="1.5" transform="matrix(-0.0097066 0.999953 0.999953 0.0097066 61.479 99.1504)" fill="#00D664"/>
<ellipse cx="1.29382" cy="1.5" rx="1.29382" ry="1.5" transform="matrix(-0.0097066 0.999953 0.999953 0.0097066 61.3272 118.676)" fill="#00D664"/>
<ellipse cx="1.29382" cy="1.5" rx="1.29382" ry="1.5" transform="matrix(-0.0097066 0.999953 0.999953 0.0097066 61.1748 137.201)" fill="#00D664"/>
<ellipse cx="1.29382" cy="1.5" rx="1.29382" ry="1.5" transform="matrix(-0.0097066 0.999953 0.999953 0.0097066 61.0254 155.726)" fill="#00D664"/>
<ellipse cx="1.29382" cy="1.5" rx="1.29382" ry="1.5" transform="matrix(-0.0097066 0.999953 0.999953 0.0097066 51.3263 118.676)" fill="#00D664"/>
<ellipse cx="1.29382" cy="1.5" rx="1.29382" ry="1.5" transform="matrix(-0.0097066 0.999953 0.999953 0.0097066 51.174 137.201)" fill="#00D664"/>
<ellipse cx="1.29382" cy="1.5" rx="1.29382" ry="1.5" transform="matrix(-0.0097066 0.999953 0.999953 0.0097066 51.0245 155.726)" fill="#00D664"/>
<ellipse cx="1.29382" cy="1.5" rx="1.29382" ry="1.5" transform="matrix(-0.0097066 0.999953 0.999953 0.0097066 41.3249 118.675)" fill="#00D664"/>
<ellipse cx="1.29382" cy="1.5" rx="1.29382" ry="1.5" transform="matrix(-0.0097066 0.999953 0.999953 0.0097066 41.1725 137.201)" fill="#00D664"/>
<ellipse cx="1.29382" cy="1.5" rx="1.29382" ry="1.5" transform="matrix(-0.0097066 0.999953 0.999953 0.0097066 41.0231 155.726)" fill="#00D664"/>
<ellipse cx="1.29382" cy="1.5" rx="1.29382" ry="1.5" transform="matrix(-0.0097066 0.999953 0.999953 0.0097066 31.3235 118.675)" fill="#00D664"/>
<ellipse cx="1.29382" cy="1.5" rx="1.29382" ry="1.5" transform="matrix(-0.0097066 0.999953 0.999953 0.0097066 31.1711 137.201)" fill="#00D664"/>
<ellipse cx="1.29382" cy="1.5" rx="1.29382" ry="1.5" transform="matrix(-0.0097066 0.999953 0.999953 0.0097066 31.0217 155.726)" fill="#00D664"/>
<ellipse cx="1.29382" cy="1.5" rx="1.29382" ry="1.5" transform="matrix(-0.0097066 0.999953 0.999953 0.0097066 21.323 118.675)" fill="#00D664"/>
<ellipse cx="1.29382" cy="1.5" rx="1.29382" ry="1.5" transform="matrix(-0.0097066 0.999953 0.999953 0.0097066 21.1706 137.2)" fill="#00D664"/>
<ellipse cx="1.29382" cy="1.5" rx="1.29382" ry="1.5" transform="matrix(-0.0097066 0.999953 0.999953 0.0097066 21.0212 155.726)" fill="#00D664"/>
<ellipse cx="1.29382" cy="1.5" rx="1.29382" ry="1.5" transform="matrix(-0.0097066 0.999953 0.999953 0.0097066 11.3224 118.675)" fill="#00D664"/>
<ellipse cx="1.29382" cy="1.5" rx="1.29382" ry="1.5" transform="matrix(-0.0097066 0.999953 0.999953 0.0097066 11.1701 137.2)" fill="#00D664"/>
<ellipse cx="1.29382" cy="1.5" rx="1.29382" ry="1.5" transform="matrix(-0.0097066 0.999953 0.999953 0.0097066 11.0207 155.726)" fill="#00D664"/>
<ellipse cx="1.29382" cy="1.5" rx="1.29382" ry="1.5" transform="matrix(-0.0097066 0.999953 0.999953 0.0097066 1.32188 118.675)" fill="#00D664"/>
<ellipse cx="1.29382" cy="1.5" rx="1.29382" ry="1.5" transform="matrix(-0.0097066 0.999953 0.999953 0.0097066 1.16954 137.2)" fill="#00D664"/>
<ellipse cx="1.29382" cy="1.5" rx="1.29382" ry="1.5" transform="matrix(-0.0097066 0.999953 0.999953 0.0097066 1.02013 155.726)" fill="#00D664"/>
<ellipse cx="1.29382" cy="1.5" rx="1.29382" ry="1.5" transform="matrix(-1 0 0 1 215.001 155)" fill="#00D664"/>
<ellipse cx="1.29382" cy="1.5" rx="1.29382" ry="1.5" transform="matrix(-1 0 0 1 199.475 155)" fill="#00D664"/>
<ellipse cx="1.29382" cy="1.5" rx="1.29382" ry="1.5" transform="matrix(-1 0 0 1 183.949 155)" fill="#00D664"/>
<ellipse cx="1.29382" cy="1.5" rx="1.29382" ry="1.5" transform="matrix(-1 0 0 1 168.424 155)" fill="#00D664"/>
<ellipse cx="1.29382" cy="1.5" rx="1.29382" ry="1.5" transform="matrix(-1 0 0 1 152.898 155)" fill="#00D664"/>
<ellipse cx="1.29382" cy="1.5" rx="1.29382" ry="1.5" transform="matrix(-1 0 0 1 137.372 155)" fill="#00D664"/>
<ellipse cx="1.29382" cy="1.5" rx="1.29382" ry="1.5" transform="matrix(-1 0 0 1 121.846 155)" fill="#00D664"/>
<ellipse cx="1.29382" cy="1.5" rx="1.29382" ry="1.5" transform="matrix(-1 0 0 1 106.32 155)" fill="#00D664"/>
<ellipse cx="1.29382" cy="1.5" rx="1.29382" ry="1.5" transform="matrix(-1 0 0 1 90.7945 155)" fill="#00D664"/>
<ellipse cx="1.29382" cy="1.5" rx="1.29382" ry="1.5" transform="matrix(-1 0 0 1 75.2687 155)" fill="#00D664"/>
</svg>
