<svg width="165" height="147" viewBox="0 0 165 147" fill="none" xmlns="http://www.w3.org/2000/svg">
<circle cx="1.5" cy="1.5" r="1.5" fill="#00D664"/>
<circle cx="19.5" cy="1.5" r="1.5" fill="#00D664"/>
<circle cx="37.5" cy="1.5" r="1.5" fill="#00D664"/>
<circle cx="55.5" cy="1.5" r="1.5" fill="#00D664"/>
<circle cx="73.5" cy="1.5" r="1.5" fill="#00D664"/>
<circle cx="91.5" cy="1.5" r="1.5" fill="#00D664"/>
<circle cx="109.5" cy="1.5" r="1.5" fill="#00D664"/>
<circle cx="127.5" cy="1.5" r="1.5" fill="#00D664"/>
<circle cx="145.5" cy="1.5" r="1.5" fill="#00D664"/>
<circle cx="163.5" cy="1.5" r="1.5" fill="#00D664"/>
<circle cx="1.5" cy="19.5" r="1.5" fill="#00D664"/>
<circle cx="19.5" cy="19.5" r="1.5" fill="#00D664"/>
<circle cx="37.5" cy="19.5" r="1.5" fill="#00D664"/>
<circle cx="55.5" cy="19.5" r="1.5" fill="#00D664"/>
<circle cx="73.5" cy="19.5" r="1.5" fill="#00D664"/>
<circle cx="91.5" cy="19.5" r="1.5" fill="#00D664"/>
<circle cx="109.5" cy="19.5" r="1.5" fill="#00D664"/>
<circle cx="127.5" cy="19.5" r="1.5" fill="#00D664"/>
<circle cx="145.5" cy="19.5" r="1.5" fill="#00D664"/>
<circle cx="163.5" cy="19.5" r="1.5" fill="#00D664"/>
<circle cx="1.5" cy="37.5" r="1.5" fill="#00D664"/>
<circle cx="19.5" cy="37.5" r="1.5" fill="#00D664"/>
<circle cx="37.5" cy="37.5" r="1.5" fill="#00D664"/>
<circle cx="55.5" cy="37.5" r="1.5" fill="#00D664"/>
<circle cx="73.5" cy="37.5" r="1.5" fill="#00D664"/>
<circle cx="91.5" cy="37.5" r="1.5" fill="#00D664"/>
<circle cx="109.5" cy="37.5" r="1.5" fill="#00D664"/>
<circle cx="127.5" cy="37.5" r="1.5" fill="#00D664"/>
<circle cx="145.5" cy="37.5" r="1.5" fill="#00D664"/>
<circle cx="163.5" cy="37.5" r="1.5" fill="#00D664"/>
<circle cx="1.5" cy="55.5" r="1.5" fill="#00D664"/>
<circle cx="19.5" cy="55.5" r="1.5" fill="#00D664"/>
<circle cx="37.5" cy="55.5" r="1.5" fill="#00D664"/>
<circle cx="55.5" cy="55.5" r="1.5" fill="#00D664"/>
<circle cx="73.5" cy="55.5" r="1.5" fill="#00D664"/>
<circle cx="91.5" cy="55.5" r="1.5" fill="#00D664"/>
<circle cx="109.5" cy="55.5" r="1.5" fill="#00D664"/>
<circle cx="127.5" cy="55.5" r="1.5" fill="#00D664"/>
<circle cx="145.5" cy="55.5" r="1.5" fill="#00D664"/>
<circle cx="163.5" cy="55.5" r="1.5" fill="#00D664"/>
<circle cx="1.5" cy="73.5" r="1.5" fill="#00D664"/>
<circle cx="19.5" cy="73.5" r="1.5" fill="#00D664"/>
<circle cx="37.5" cy="73.5" r="1.5" fill="#00D664"/>
<circle cx="55.5" cy="73.5" r="1.5" fill="#00D664"/>
<circle cx="73.5" cy="73.5" r="1.5" fill="#00D664"/>
<circle cx="91.5" cy="73.5" r="1.5" fill="#00D664"/>
<circle cx="109.5" cy="73.5" r="1.5" fill="#00D664"/>
<circle cx="127.5" cy="73.5" r="1.5" fill="#00D664"/>
<circle cx="145.5" cy="73.5" r="1.5" fill="#00D664"/>
<circle cx="163.5" cy="73.5" r="1.5" fill="#00D664"/>
<circle cx="1.5" cy="91.5" r="1.5" fill="#00D664"/>
<circle cx="19.5" cy="91.5" r="1.5" fill="#00D664"/>
<circle cx="37.5" cy="91.5" r="1.5" fill="#00D664"/>
<circle cx="55.5" cy="91.5" r="1.5" fill="#00D664"/>
<circle cx="73.5" cy="91.5" r="1.5" fill="#00D664"/>
<circle cx="91.5" cy="91.5" r="1.5" fill="#00D664"/>
<circle cx="109.5" cy="91.5" r="1.5" fill="#00D664"/>
<circle cx="127.5" cy="91.5" r="1.5" fill="#00D664"/>
<circle cx="145.5" cy="91.5" r="1.5" fill="#00D664"/>
<circle cx="163.5" cy="91.5" r="1.5" fill="#00D664"/>
<circle cx="1.5" cy="109.5" r="1.5" fill="#00D664"/>
<circle cx="19.5" cy="109.5" r="1.5" fill="#00D664"/>
<circle cx="37.5" cy="109.5" r="1.5" fill="#00D664"/>
<circle cx="55.5" cy="109.5" r="1.5" fill="#00D664"/>
<circle cx="73.5" cy="109.5" r="1.5" fill="#00D664"/>
<circle cx="91.5" cy="109.5" r="1.5" fill="#00D664"/>
<circle cx="109.5" cy="109.5" r="1.5" fill="#00D664"/>
<circle cx="127.5" cy="109.5" r="1.5" fill="#00D664"/>
<circle cx="145.5" cy="109.5" r="1.5" fill="#00D664"/>
<circle cx="163.5" cy="109.5" r="1.5" fill="#00D664"/>
<circle cx="1.5" cy="127.5" r="1.5" fill="#00D664"/>
<circle cx="19.5" cy="127.5" r="1.5" fill="#00D664"/>
<circle cx="37.5" cy="127.5" r="1.5" fill="#00D664"/>
<circle cx="55.5" cy="127.5" r="1.5" fill="#00D664"/>
<circle cx="73.5" cy="127.5" r="1.5" fill="#00D664"/>
<circle cx="91.5" cy="127.5" r="1.5" fill="#00D664"/>
<circle cx="109.5" cy="127.5" r="1.5" fill="#00D664"/>
<circle cx="127.5" cy="127.5" r="1.5" fill="#00D664"/>
<circle cx="145.5" cy="127.5" r="1.5" fill="#00D664"/>
<circle cx="163.5" cy="127.5" r="1.5" fill="#00D664"/>
<circle cx="1.5" cy="145.5" r="1.5" fill="#00D664"/>
<circle cx="19.5" cy="145.5" r="1.5" fill="#00D664"/>
<circle cx="37.5" cy="145.5" r="1.5" fill="#00D664"/>
<circle cx="55.5" cy="145.5" r="1.5" fill="#00D664"/>
<circle cx="73.5" cy="145.5" r="1.5" fill="#00D664"/>
<circle cx="91.5" cy="145.5" r="1.5" fill="#00D664"/>
<circle cx="109.5" cy="145.5" r="1.5" fill="#00D664"/>
<circle cx="127.5" cy="145.5" r="1.5" fill="#00D664"/>
<circle cx="145.5" cy="145.5" r="1.5" fill="#00D664"/>
<circle cx="163.5" cy="145.5" r="1.5" fill="#00D664"/>
</svg>
