<svg width="16" height="16" viewBox="0 0 16 16" fill="none" xmlns="http://www.w3.org/2000/svg">
<g clip-path="url(#clip0_1_668)">
<path d="M2.2769 2.22225H4.94356C5.43423 2.22225 5.77779 2.17603 5.77779 2.66669V1.7778C5.77779 1.28714 5.43423 0.888916 4.94356 0.888916H1.38801C0.499119 0.888916 -0.204437 1.83336 0.0546746 3.11114C0.0546746 3.11114 0.850675 7.2778 0.906675 7.53692C1.05467 8.22225 1.85067 8.88892 2.70267 8.88892H5.79512C6.28623 8.88892 5.77779 8.04625 5.77779 7.55558V6.66669C5.77779 7.15736 5.43423 7.55558 4.94356 7.55558H3.16579C2.67512 7.55558 2.35112 7.09247 2.2769 6.66669C2.20267 6.24092 1.5729 3.40758 1.5729 3.40758C1.4249 2.55558 1.78579 2.22225 2.2769 2.22225ZM13.7489 2.22225H11.0822C10.5916 2.22225 9.77779 2.17603 9.77779 2.66669V1.7778C9.77779 1.28714 10.5916 0.888916 11.0822 0.888916H14.6378C15.5267 0.888916 16.2307 1.83336 15.9711 3.11114C15.9711 3.11114 15.2453 7.29736 15.184 7.55558C15.0267 8.22225 14.2765 8.88892 13.4062 8.88892H10.2302C9.73956 8.88892 9.77779 8.04625 9.77779 7.55558V6.66669C9.77779 7.15736 10.5916 7.55558 11.0822 7.55558H12.86C13.3507 7.55558 13.6751 7.09247 13.7489 6.66669C13.8227 6.24092 14.4529 3.40758 14.4529 3.40758C14.6005 2.55558 14.24 2.22225 13.7489 2.22225ZM9.25867 9.77781C9.25867 6.68536 8.05467 9.77781 8.05467 9.77781C8.05467 9.77781 6.72134 6.68536 6.72134 9.77781C6.72134 12.8702 5.25867 14.2222 5.25867 14.2222H10.7218C10.7213 14.2222 9.25867 12.8702 9.25867 9.77781Z" fill="#FFAC33"/>
<path d="M12.9436 2.92306C12.9436 5.93417 9.93468 11.0084 8.05468 11.0084C6.17423 11.0084 3.16579 5.93417 3.16579 2.92306C3.16579 0.614173 3.61023 0.114618 4.49912 0.114618C5.10979 0.114618 7.1769 0.102618 8.05468 0.102618L11.1658 0.102173C12.4622 0.101729 12.9436 0.406173 12.9436 2.92306Z" fill="#FFCC4D"/>
<path d="M12 14.6667C12 15.1574 12.1009 15.5556 11.6102 15.5556H4.49911C4.008 15.5556 4 15.1574 4 14.6667V14.2223C4 13.7316 4.51733 13.3334 4.98044 13.3334H11.1658C11.6289 13.3334 12 13.7316 12 14.2223V14.6667Z" fill="#C1694F"/>
<path d="M12.8889 15.3888C12.8889 15.7266 12.9622 16 12.3324 16H3.77689C3.20267 16 3.11111 15.7266 3.11111 15.3888V15.2777C3.11111 14.94 3.43911 14.6666 3.77689 14.6666H12.3324C12.6698 14.6666 12.8889 14.94 12.8889 15.2777V15.3888Z" fill="#C1694F"/>
</g>
<defs>
<clipPath id="clip0_1_668">
<rect width="16" height="16" fill="white"/>
</clipPath>
</defs>
</svg>
