<svg width="16" height="16" viewBox="0 0 16 16" fill="none" xmlns="http://www.w3.org/2000/svg">
<g clip-path="url(#clip0_1_633)">
<path d="M8.00002 16C12.4183 16 16 12.4183 16 8.00002C16 3.58173 12.4183 0 8.00002 0C3.58173 0 0 3.58173 0 8.00002C0 12.4183 3.58173 16 8.00002 16Z" fill="#FFC10E"/>
<path d="M6.14873 3.7124C5.6716 3.7124 5.22836 3.94508 4.96193 4.33467L4.90696 4.40452L4.8702 4.35766C4.6068 3.95382 4.16279 3.71254 3.68076 3.71254C2.85826 3.71254 2.26141 4.30955 2.26141 5.13178C2.26141 6.34587 4.45944 8.13536 4.61973 8.26419C4.69539 8.33657 4.79444 8.37637 4.89954 8.37637C5.00463 8.37637 5.10368 8.3367 5.17934 8.26409C5.34014 8.13421 7.56798 6.3167 7.56798 5.13178C7.56798 4.30942 6.9711 3.7124 6.14873 3.7124Z" fill="#ED3533"/>
<path d="M12.3797 3.7124C11.9026 3.7124 11.4593 3.94508 11.1929 4.33467L11.138 4.40452L11.1012 4.35766C10.8378 3.95382 10.3938 3.71254 9.91175 3.71254C9.08925 3.71254 8.4924 4.30955 8.4924 5.13178C8.4924 6.34587 10.6904 8.13536 10.8507 8.26419C10.9264 8.33657 11.0254 8.37637 11.1305 8.37637C11.2355 8.37637 11.3345 8.3367 11.4103 8.26409C11.571 8.13435 13.7988 6.3167 13.7988 5.13178C13.799 4.30942 13.2021 3.7124 12.3797 3.7124Z" fill="#ED3533"/>
<path d="M11.5883 10.6973C9.587 12.7338 6.36691 12.7179 4.38225 10.6669C4.09867 10.3739 3.65249 10.8209 3.93571 11.1135C6.15608 13.4081 9.79796 13.4204 12.0349 11.1438C12.3205 10.8533 11.8741 10.4064 11.5883 10.6973Z" fill="#333333"/>
</g>
<defs>
<clipPath id="clip0_1_633">
<rect width="16" height="16" fill="white"/>
</clipPath>
</defs>
</svg>
