<svg width="71" height="18" viewBox="0 0 71 18" fill="none" xmlns="http://www.w3.org/2000/svg">
<path d="M2.486 2.326C3.63 1.43133 5.20667 0.983999 7.216 0.983999C9.22533 0.983999 10.78 1.424 11.88 2.304C12.9947 3.16933 13.552 4.43067 13.552 6.088H8.932C8.932 4.9 8.28667 4.306 6.996 4.306C6.45333 4.306 6.028 4.416 5.72 4.636C5.412 4.856 5.258 5.14933 5.258 5.516C5.258 5.94133 5.44867 6.264 5.83 6.484C6.21133 6.68933 6.96667 6.924 8.096 7.188C8.81467 7.364 9.416 7.52533 9.9 7.672C10.384 7.81867 10.8973 8.03133 11.44 8.31C11.9973 8.58867 12.43 8.89667 12.738 9.234C13.0607 9.55667 13.332 9.982 13.552 10.51C13.772 11.0233 13.882 11.6173 13.882 12.292C13.882 13.8613 13.288 15.1007 12.1 16.01C10.912 16.9047 9.284 17.352 7.216 17.352C5.08933 17.352 3.432 16.8753 2.244 15.922C1.056 14.9687 0.462 13.634 0.462 11.918H5.214C5.214 13.2527 5.93267 13.92 7.37 13.92C7.95667 13.92 8.41133 13.8027 8.734 13.568C9.07133 13.3187 9.24 12.9887 9.24 12.578C9.24 12.1233 9.05667 11.7933 8.69 11.588C8.32333 11.3827 7.59 11.1407 6.49 10.862C5.94733 10.7153 5.51467 10.598 5.192 10.51C4.884 10.4073 4.49533 10.2753 4.026 10.114C3.57133 9.938 3.212 9.77667 2.948 9.63C2.684 9.46867 2.39067 9.26333 2.068 9.014C1.76 8.76467 1.52533 8.50067 1.364 8.222C1.20267 7.92867 1.06333 7.584 0.946 7.188C0.828667 6.792 0.77 6.35933 0.77 5.89C0.77 4.394 1.342 3.206 2.486 2.326ZM38.4651 1.336L35.4071 17H29.4671L28.2791 10.686C27.8538 8.28067 27.5458 6.308 27.3551 4.768H27.3111C27.1058 6.484 26.7904 8.45667 26.3651 10.686L25.1771 17H19.2371L16.1791 1.336H20.4471L21.3931 6.924C21.7304 8.87467 22.0384 10.9867 22.3171 13.26H22.3611C22.6251 11.192 22.9698 9.08 23.3951 6.924L24.4951 1.336H30.1491L31.2491 6.924C31.6598 8.96267 32.0118 11.0747 32.3051 13.26H32.3491C32.5984 11.148 32.8991 9.036 33.2511 6.924L34.2191 1.336H38.4651ZM51.2696 17L50.4776 14.184H45.1756L44.3836 17H39.7416L44.9996 1.336H50.6536L55.9116 17H51.2696ZM46.1436 10.73H49.5096L49.2016 9.652C48.747 8.05333 48.2996 6.29333 47.8596 4.372H47.8156C47.3463 6.38133 46.8916 8.14133 46.4516 9.652L46.1436 10.73ZM70.4531 1.336L65.0851 11.28V17H60.6851V11.28L55.3171 1.336H60.1571L61.3891 4.086C62.0051 5.46467 62.4964 6.75533 62.8631 7.958H62.9071C63.3031 6.71133 63.8018 5.42067 64.4031 4.086L65.6351 1.336H70.4531Z" fill="white"/>
</svg>
