<svg width="45" height="45" viewBox="0 0 45 45" fill="none" xmlns="http://www.w3.org/2000/svg">
<circle cx="22.5" cy="22.5" r="22.5" fill="#00D664" fill-opacity="0.1"/>
<g clip-path="url(#clip0_1_737)">
<path d="M20.0084 28.707L14.4638 23.4646C14.3057 23.3151 14.2155 23.1122 14.2092 22.889C14.2031 22.6701 14.2818 22.4627 14.4313 22.3045L19.6738 16.7598C19.9836 16.4323 20.5023 16.4177 20.8297 16.7274L21.3334 17.2034C21.4914 17.3529 21.5817 17.5558 21.5879 17.7748C21.594 17.9936 21.5154 18.2083 21.366 18.3663L18.3076 21.608L28.3046 21.3279C28.7552 21.3153 29.1327 21.6579 29.1453 22.1085L29.1647 22.8011C29.1773 23.2517 28.8206 23.6506 28.3701 23.6632L18.3375 23.9442L21.6085 27.0265C21.7666 27.1759 21.8567 27.3733 21.8629 27.5922C21.869 27.8112 21.7901 28.0158 21.6407 28.174L21.1644 28.676C20.8547 29.0037 20.3361 29.017 20.0084 28.707Z" fill="#00D664"/>
</g>
<defs>
<clipPath id="clip0_1_737">
<rect width="14.9521" height="14.9521" fill="white" transform="matrix(0.0279996 0.999608 0.999608 -0.0279996 14 15.4185)"/>
</clipPath>
</defs>
</svg>
