<svg width="16" height="16" viewBox="0 0 16 16" fill="none" xmlns="http://www.w3.org/2000/svg">
<g clip-path="url(#clip0_1_532)">
<path d="M15.9771 6.16432C15.922 5.9946 15.7754 5.87091 15.5988 5.84529L10.6387 5.12451L8.42046 0.629933C8.34152 0.469933 8.17856 0.368652 8.00015 0.368652C7.82171 0.368652 7.65877 0.469933 7.57981 0.629933L5.36144 5.12451L0.40146 5.84529C0.22493 5.87091 0.0782114 5.9946 0.0230866 6.16429C-0.0320694 6.334 0.0139304 6.52029 0.141711 6.64482L3.7307 10.1434L2.88358 15.0834C2.85339 15.2593 2.9257 15.437 3.07004 15.5419C3.1517 15.6012 3.24842 15.6314 3.3456 15.6314C3.42023 15.6314 3.4951 15.6136 3.56367 15.5776L8.00012 13.2451L12.4364 15.5775C12.5943 15.6606 12.7857 15.6468 12.93 15.5419C13.0744 15.437 13.1467 15.2593 13.1166 15.0834L12.2692 10.1434L15.8586 6.64478C15.9863 6.52028 16.0323 6.334 15.9771 6.16432Z" fill="#F5AD0D"/>
</g>
<defs>
<clipPath id="clip0_1_532">
<rect width="16" height="16" fill="white"/>
</clipPath>
</defs>
</svg>
